<svg xmlns="http://www.w3.org/2000/svg" width="18" height="20.572" viewBox="0 0 18 20.572">
  <defs>
    <style>
      .cls-1 {
        fill: #fff;
      }
    </style>
  </defs>
  <path id="attachment" class="cls-1" d="M13.734,6.57l-1.305-1.3L5.9,11.79A2.768,2.768,0,0,0,9.819,15.7l7.83-7.829a4.613,4.613,0,0,0-6.525-6.524L2.9,9.572l-.017.017a6.434,6.434,0,0,0,9.1,9.1L12,18.67h0l5.612-5.611-1.306-1.3L10.7,17.366l-.017.017a4.589,4.589,0,0,1-6.491-6.489l.018-.017h0l8.223-8.22A2.768,2.768,0,0,1,16.346,6.57L8.516,14.4a.923.923,0,0,1-1.305-1.3L13.736,6.57Z" transform="translate(-1.001 0)"/>
</svg>
