<svg xmlns="http://www.w3.org/2000/svg" width="18" height="20.571" viewBox="0 0 18 20.571">
  <defs>
    <style>
      .cls-1 {
        fill: #fff;
      }
    </style>
  </defs>
  <g id="file-text2" transform="translate(-2)">
    <path id="Path_1030" data-name="Path 1030" class="cls-1" d="M19.152,4.6a18.248,18.248,0,0,0-1.751-2,18.12,18.12,0,0,0-2-1.751A3.2,3.2,0,0,0,13.571,0H3.607A1.609,1.609,0,0,0,2,1.607V18.964a1.609,1.609,0,0,0,1.607,1.607H18.393A1.609,1.609,0,0,0,20,18.964V6.429A3.2,3.2,0,0,0,19.152,4.6Zm-2.66-1.094A17.571,17.571,0,0,1,17.95,5.143H14.857V2.05A17.571,17.571,0,0,1,16.492,3.508Zm2.222,15.456a.326.326,0,0,1-.321.321H3.607a.326.326,0,0,1-.321-.321V1.607a.326.326,0,0,1,.321-.321h9.964v4.5a.643.643,0,0,0,.643.643h4.5Z"/>
    <path id="Path_1031" data-name="Path 1031" class="cls-1" d="M17.643,25.286h-9a.643.643,0,0,1,0-1.286h9a.643.643,0,0,1,0,1.286Z" transform="translate(-2.143 -8.571)"/>
    <path id="Path_1032" data-name="Path 1032" class="cls-1" d="M17.643,21.286h-9a.643.643,0,0,1,0-1.286h9a.643.643,0,0,1,0,1.286Z" transform="translate(-2.143 -7.143)"/>
    <path id="Path_1033" data-name="Path 1033" class="cls-1" d="M17.643,17.286h-9a.643.643,0,0,1,0-1.286h9a.643.643,0,0,1,0,1.286Z" transform="translate(-2.143 -5.714)"/>
  </g>
</svg>
