<svg xmlns="http://www.w3.org/2000/svg" width="18" height="20.571" viewBox="0 0 18 20.571">
  <defs>
    <style>
      .cls-1 {
        fill: #fff;
      }
    </style>
  </defs>
  <g id="files-empty-hover" transform="translate(-2)">
    <path id="Path_1049" data-name="Path 1049" class="cls-1" d="M20.581,8.6a18.248,18.248,0,0,0-1.751-2,18.12,18.12,0,0,0-2-1.751A3.2,3.2,0,0,0,15,4H7.607A1.609,1.609,0,0,0,6,5.607V20.393A1.609,1.609,0,0,0,7.607,22H19.821a1.609,1.609,0,0,0,1.607-1.607V10.429A3.2,3.2,0,0,0,20.581,8.6ZM17.92,7.508a17.571,17.571,0,0,1,1.458,1.635H16.286V6.05A17.571,17.571,0,0,1,17.92,7.508Zm2.222,12.885a.326.326,0,0,1-.321.321H7.607a.326.326,0,0,1-.321-.321V5.607a.326.326,0,0,1,.321-.321H15v4.5a.643.643,0,0,0,.643.643h4.5Z" transform="translate(-1.429 -1.429)"/>
    <path id="Path_1050" data-name="Path 1050" class="cls-1" d="M12.826.848A3.2,3.2,0,0,0,11,0H3.607A1.609,1.609,0,0,0,2,1.607V16.393a1.61,1.61,0,0,0,1.286,1.575V1.607a.326.326,0,0,1,.321-.321h9.781c-.194-.159-.382-.307-.561-.438Z"/>
  </g>
</svg>
