<svg xmlns="http://www.w3.org/2000/svg" width="18.375" height="21" viewBox="0 0 18.375 21">
  <defs>
    <style>
      .cls-1 {
        fill: #fff;
      }
    </style>
  </defs>
  <g id="clipboard" transform="translate(-2)">
    <path id="Path_974" data-name="Path 974" class="cls-1" d="M19.719,2.625H13.813a2.625,2.625,0,0,0-5.25,0H2.656A.656.656,0,0,0,2,3.281V20.344A.656.656,0,0,0,2.656,21H19.719a.656.656,0,0,0,.656-.656V3.281A.656.656,0,0,0,19.719,2.625ZM11.188,1.313A1.313,1.313,0,1,1,9.875,2.625,1.312,1.312,0,0,1,11.188,1.313Zm7.875,18.375H3.313V3.938H5.938V5.906a.656.656,0,0,0,.656.656h9.188a.656.656,0,0,0,.656-.656V3.938h2.625Z"/>
    <path id="Path_975" data-name="Path 975" class="cls-1" d="M11.8,22.276,7.586,17.411l1.2-1.2,3.01,2.353,5.635-4.978,1.2,1.2Z" transform="translate(-1.92 -4.67)"/>
  </g>
</svg>
