<svg xmlns="http://www.w3.org/2000/svg" width="17.961" height="22.5" viewBox="0 0 17.961 22.5">
  <defs>
    <style>
      .cls-1 {
        fill: #fff;
      }
    </style>
  </defs>
  <g id="buyicon" transform="translate(600.5 -514.5)">
    <path id="Path_79" data-name="Path 79" class="cls-1" d="M-226.132,375.171a1.965,1.965,0,0,1,1.959-1.959h.065v-.784a.572.572,0,0,1,.555-.555.572.572,0,0,1,.555.555v.784h1.045a.572.572,0,0,1,.555.555.572.572,0,0,1-.555.555h-2.253a.865.865,0,0,0-.849.849.865.865,0,0,0,.849.849h1.274a1.965,1.965,0,0,1,1.959,1.959,1.965,1.965,0,0,1-1.959,1.959h-.1v.784a.572.572,0,0,1-.555.555.572.572,0,0,1-.555-.555v-.784h-1.11a.572.572,0,0,1-.555-.555.572.572,0,0,1,.555-.555h2.319a.865.865,0,0,0,.849-.849.865.865,0,0,0-.849-.849h-1.274A1.959,1.959,0,0,1-226.132,375.171Zm-6.368,6.89V382l1.306-14.565a.567.567,0,0,1,.555-.522h2.71a4.432,4.432,0,0,1,4.409-4.409,4.411,4.411,0,0,1,4.409,4.409h2.71a.567.567,0,0,1,.555.522L-214.539,382v.065A3.154,3.154,0,0,1-217.87,385h-11.3A3.154,3.154,0,0,1-232.5,382.061Zm5.715-15.12h6.564a3.275,3.275,0,0,0-3.266-3.266A3.282,3.282,0,0,0-226.785,366.941Zm-4.6,15.152a2.063,2.063,0,0,0,2.221,1.8h11.3a2.085,2.085,0,0,0,2.221-1.8l-1.241-14.042h-2.221v1.959a.572.572,0,0,1-.555.555.572.572,0,0,1-.555-.555v-1.959h-6.564v1.959a.572.572,0,0,1-.555.555.572.572,0,0,1-.555-.555v-1.959h-2.221Z" transform="translate(-368 152)"/>
  </g>
</svg>
