<svg xmlns="http://www.w3.org/2000/svg" width="18" height="18" viewBox="0 0 18 18">
  <defs>
    <style>
      .cls-1 {
        fill: #fff;
      }
    </style>
  </defs>
  <g id="iconfinder_icon-ios7-bell_211694" transform="translate(-64 -64)">
    <path id="Path_1051" data-name="Path 1051" class="cls-1" d="M78.892,71.515c0-4.53-2.461-6.071-4.763-6.415,0-.023,0-.046,0-.074A1.083,1.083,0,0,0,73,64a1.066,1.066,0,0,0-1.116,1.026.372.372,0,0,0,0,.074c-2.306.348-4.781,1.894-4.781,6.424,0,5.282-1.327,5.849-3.108,7.334H82C80.228,77.368,78.892,76.8,78.892,71.515Z"/>
    <path id="Path_1052" data-name="Path 1052" class="cls-1" d="M207.042,407.114A2.545,2.545,0,0,0,209.584,405H204.5A2.541,2.541,0,0,0,207.042,407.114Z" transform="translate(-134.033 -325.114)"/>
  </g>
</svg>
