<svg xmlns="http://www.w3.org/2000/svg" width="21.03" height="20.139" viewBox="0 0 21.03 20.139">
  <defs>
    <style>
      .cls-1 {
        fill: #fff;
      }
    </style>
  </defs>
  <g id="preconstructionicon" transform="translate(-18.6 -19.931)">
    <g id="Group_27" data-name="Group 27" transform="translate(18.6 19.931)">
      <path id="Path_74" data-name="Path 74" class="cls-1" d="M27.2,37.724a2.712,2.712,0,0,1-1.971-.082V49.505l.985,2.345.986-2.345Z" transform="translate(-23.006 -31.711)"/>
      <path id="Path_75" data-name="Path 75" class="cls-1" d="M36.323,28.526H49.05l2.345-.985-2.345-.985H36.288a2.713,2.713,0,0,1,.035,1.97Z" transform="translate(-30.365 -24.337)"/>
      <path id="Path_76" data-name="Path 76" class="cls-1" d="M31.143,47.283H31.11v1h.033a16.746,16.746,0,0,0,16.7-15.847H46.838A15.739,15.739,0,0,1,31.143,47.283Z" transform="translate(-26.921 -28.252)"/>
      <path id="Path_77" data-name="Path 77" class="cls-1" d="M23.922,23.135a2.116,2.116,0,0,0-2.9-1.967l-1.237-1.237L18.6,21.115l1.237,1.236a2.118,2.118,0,1,0,4.085.783Zm-2.934,0a.816.816,0,1,1,.816.816A.816.816,0,0,1,20.988,23.135Z" transform="translate(-18.6 -19.931)"/>
    </g>
  </g>
</svg>
