<svg xmlns="http://www.w3.org/2000/svg" width="16.142" height="23.643" viewBox="0 0 16.142 23.643">
  <defs>
    <style>
      .cls-1 {
        opacity: 0.61;
      }

      .cls-2 {
        fill: #fff;
      }
    </style>
  </defs>
  <g id="mouseicon" class="cls-1" transform="translate(-754.505 -663.667)">
    <path id="Path_12" data-name="Path 12" class="cls-2" d="M4787.754-7h6.634a4.734,4.734,0,0,1,3.357,1.4,4.735,4.735,0,0,1,1.4,3.357V11.887a4.768,4.768,0,0,1-4.754,4.756h-6.634A4.768,4.768,0,0,1,4783,11.887V-2.246a4.735,4.735,0,0,1,1.4-3.357A4.733,4.733,0,0,1,4787.754-7Zm6.634,1.056h-6.634a3.685,3.685,0,0,0-2.611,1.087,3.685,3.685,0,0,0-1.086,2.611V11.887a3.71,3.71,0,0,0,3.7,3.7h6.634a3.71,3.71,0,0,0,3.7-3.7V-2.246A3.685,3.685,0,0,0,4797-4.857,3.685,3.685,0,0,0,4794.388-5.944Z" transform="translate(-4028.495 670.667)"/>
    <path id="Path_13" data-name="Path 13" class="cls-2" d="M8754.056,2522v4.546H8753V2522Z" transform="translate(-7990.952 -1853.528)"/>
  </g>
</svg>
