<svg xmlns="http://www.w3.org/2000/svg" width="15.288" height="23.5" viewBox="0 0 15.288 23.5">
  <defs>
    <style>
      .cls-1 {
        fill: #fff;
      }
    </style>
  </defs>
  <g id="sellicon" transform="translate(351.288 -157.5)">
    <g id="Group_28" data-name="Group 28" transform="translate(-385.314 144.5)">
      <path id="Path_81" data-name="Path 81" class="cls-1" d="M49.15,39.91l-4.372-3.826a.531.531,0,0,0-.765.055v.055l-1.64,2.186a.588.588,0,0,0,.109.765h0l.82.656H39.75l-2.569-3.607a.528.528,0,0,0-.765-.109h0l-2.186,1.64a.578.578,0,0,0-.109.765l3.826,5.465a.5.5,0,0,0,.437.219H43.3v2.186a.516.516,0,0,0,.547.547h4.919a.516.516,0,0,0,.547-.547V40.347A.621.621,0,0,0,49.15,39.91Zm-.929,5.9H44.4V43.626a.516.516,0,0,0-.547-.547H38.657l-3.334-4.809,1.312-.984,2.4,3.388a.5.5,0,0,0,.437.219h5.465a.516.516,0,0,0,.547-.547.5.5,0,0,0-.219-.437L43.521,38.6l.984-1.257,3.716,3.279Z" transform="translate(0 -10.405)"/>
      <path id="Path_83" data-name="Path 83" class="cls-1" d="M42.012,13a6.012,6.012,0,1,0,6.012,6.012A5.994,5.994,0,0,0,42.012,13Zm0,10.93a4.919,4.919,0,1,1,4.919-4.919A4.9,4.9,0,0,1,42.012,23.93Z" transform="translate(-0.895)"/>
      <path id="Path_84" data-name="Path 84" class="cls-1" d="M46.186,17H45.093v1.093H44v3.279h2.186v1.093H44v1.093h1.093v1.093h1.093V23.558h1.093V20.279H45.093V19.186h2.186V18.093H46.186Z" transform="translate(-4.523 -1.814)"/>
    </g>
  </g>
</svg>
