<svg xmlns="http://www.w3.org/2000/svg" width="19.98" height="18.602" viewBox="0 0 19.98 18.602">
  <defs>
    <style>
      .cls-1 {
        fill: #fff;
      }
    </style>
  </defs>
  <path id="wallet" class="cls-1" d="M12.712,16.09a1.378,1.378,0,0,1-1.378-1.378V13.335a1.378,1.378,0,0,1,1.378-1.378H20.98V16.09Zm1.033-3.043a1.033,1.033,0,1,0,1.033,1.033A1.034,1.034,0,0,0,13.746,13.047Zm-3.1.287v1.378a2.068,2.068,0,0,0,2.067,2.067H19.6v2.756A2.067,2.067,0,0,1,17.535,21.6H3.067A2.068,2.068,0,0,1,1,19.535V6.445A2.067,2.067,0,0,1,3.067,4.378H9.7l-1.618.674H2.723a1.033,1.033,0,0,0,0,2.067H19.6v4.148h-6.89A2.067,2.067,0,0,0,10.646,13.335ZM3.757,8.512H2.379V9.89h.689V9.2h.689Zm0,2.067H2.379v1.378H3.1l-.028-.689.689.014Zm0,2.067H2.379v1.378h.7l-.014-.689h.689Zm0,2.067H2.379V16.09h.7L3.068,15.4l.689.014Zm0,2.067H2.379v1.378h.689v-.689h.689Zm0,2.067H2.379v1.378h.7l-.014-.675h.689ZM6.512,6.4l8.1-3.4,1.55,3.4Zm9.4-2.024h1.622a2.055,2.055,0,0,1,1.519.674H16.243Z" transform="translate(-1 -3)"/>
</svg>
